<svg enable-background="new 0 0 24 24" height="24" viewBox="0 0 24 24" width="24" xmlns="http://www.w3.org/2000/svg"><path d="m0 0h24v24h-24z" fill="none"/><path d="m0 0h24v24h-24z" fill="none"/><circle cx="10" cy="8" r="4"/><path d="m10.35 14.01c-2.73-.1-8.35 1.26-8.35 3.99v1c0 .55.45 1 1 1h8.54c-2.47-2.76-1.23-5.89-1.19-5.99z"/><path d="m19.43 18.02c.47-.8.7-1.77.48-2.82-.34-1.64-1.72-2.95-3.38-3.16-2.63-.34-4.85 1.87-4.5 4.5.22 1.66 1.52 3.04 3.16 3.38 1.05.22 2.02-.01 2.82-.48l1.86 1.86c.39.39 1.02.39 1.41 0 .39-.39.39-1.02 0-1.41zm-3.43-.02c-1.1 0-2-.9-2-2s.9-2 2-2 2 .9 2 2-.9 2-2 2z"/></svg>